<svg version="1.1" xmlns="http://www.w3.org/2000/svg" xmlns:xlink="http://www.w3.org/1999/xlink" x="0px" y="0px" width="100%" height="370px" viewBox="0 0 218 191.333" enable-background="new 0 0 218 191.333" xml:space="preserve"><g><path fill="#A8A8A7" d="M205.43,145.13c-0.075-0.059-0.172-0.203-0.216-0.321c-0.159-0.42,0.148-0.935,0.557-0.935 	c0.361,0,0.689,0.456,0.611,0.848C206.298,145.147,205.751,145.381,205.43,145.13L205.43,145.13z M85.091,112.962 	C67.25,92.173,48.447,70.259,43.306,64.266l-9.345-10.899l0.946-2.609c1.282-3.532,1.276-3.519,1.374-3.504 	c0.171,0.026,32.586,7.134,51.316,11.253c39.61,8.71,52.048,11.456,52.085,11.497c0.032,0.036-21.968,80.285-22.105,80.634 	C117.536,150.741,112.25,144.61,85.091,112.962L85.091,112.962z M210.163,154.782c-0.148-0.296,0.217-0.676,0.322-0.783 	c0.073-0.075,0.307-0.141,0.504-0.049c0.375,0.176,0.507,0.734,0.247,1.042c-0.072,0.087-0.154,0.144-0.176,0.157 	C210.741,155.347,210.307,155.08,210.163,154.782L210.163,154.782z M127.18,160.931c0.013-0.026,0.641-1.244,1.397-2.705 	l1.372-2.657l3.761-13.702c4.167-15.184,4.834-17.609,10.414-37.936c2.133-7.767,4.795-17.461,5.914-21.542 	c2.556-9.313,2.494-9.097,2.551-9.029c0.025,0.03,0.481,0.951,1.014,2.043c0.623,1.283,1.289,2.538,1.875,3.532 	c0.5,0.849,0.95,1.594,0.998,1.656c0.084,0.106,0.099,0.105,0.287-0.025c0.109-0.075,0.206-0.126,0.218-0.113 	c0.089,0.105,30.134,50.779,30.155,50.861c0.017,0.069-0.037,0.149-0.155,0.226c-0.098,0.065-0.169,0.151-0.156,0.188 	c0.014,0.038,0.922,1.584,2.021,3.436c1.357,2.286,2.249,3.716,2.779,4.458l0.781,1.094l-0.033,2.146 	c-0.045,2.774-0.195,4.133-0.681,6.169c-0.228,0.956-0.717,2.465-1.003,3.1c-1.186,2.631-3.121,4.547-5.531,5.473 	c-0.889,0.34-0.947,0.353-7.111,1.595c-2.942,0.592-5.37,1.092-5.395,1.11c-0.026,0.016-0.046,0.175-0.046,0.35v0.321h-22.724 	C137.383,160.98,127.167,160.957,127.18,160.931L127.18,160.931z M210.727,161.717c-0.392-0.225-0.634-0.801-0.535-1.284 	c0.174-0.841,1.094-1.2,1.679-0.652c0.5,0.469,0.47,1.437-0.058,1.854C211.564,161.833,211.007,161.874,210.727,161.717 	L210.727,161.717z M205.564,163.609c-0.168-0.081-0.249-0.223-0.344-0.603c-0.021-0.08-0.127-0.265-0.237-0.411 	c-0.251-0.336-0.263-0.585-0.041-0.829c0.228-0.249,1.887-1.239,2.076-1.239c0.177,0,0.499,0.312,0.499,0.483 	c0,0.136,0.221,0.617,0.284,0.617c0.067,0,0.182,0.303,0.182,0.482c0,0.083-0.046,0.212-0.101,0.285 	c-0.103,0.134-1.802,1.195-2.022,1.263C205.795,163.679,205.662,163.656,205.564,163.609L205.564,163.609z M208.568,168.965 	c-0.658-0.375-0.648-1.438,0.018-1.79c0.274-0.144,0.497-0.132,0.793,0.043c0.304,0.178,0.466,0.488,0.466,0.889 	C209.845,168.827,209.149,169.294,208.568,168.965L208.568,168.965z M119.873,169.143c-0.777-0.155-1.578-0.635-1.986-1.189 	c-1.187-1.612-1.119-3.708,0.163-5.135c0.627-0.694,1.415-1.062,2.281-1.062c0.597,0,0.972,0.096,1.517,0.389 	c0.538,0.29,1.104,0.857,1.379,1.381c0.232,0.442,0.431,1.135,0.478,1.66c0.147,1.662-0.91,3.354-2.407,3.85 	C120.906,169.166,120.234,169.217,119.873,169.143L119.873,169.143z M186.369,169.54c4.671-1.173,8.631-2.15,8.802-2.173 	c0.374-0.053,4.922-1.183,5.141-1.277c0.3-0.131,0.343-0.253,0.547-1.584c0.108-0.703,0.206-1.287,0.218-1.302 	c0.013-0.013,0.038,0.159,0.057,0.382c0.106,1.252,0.783,2.397,1.728,2.924c0.799,0.446,1.446,0.513,2.496,0.262 	c0.415-0.1,0.474-0.1,0.774-0.003c0.22,0.072,0.4,0.188,0.566,0.367c0.281,0.304,0.328,0.421,0.476,1.158 	c0.061,0.299,0.174,0.668,0.255,0.82c0.201,0.383,0.778,0.945,1.253,1.223c0.659,0.387,1.572,0.803,1.685,0.768 	c0.059-0.016,0.165-0.098,0.235-0.182l0.128-0.15l-0.356-0.461c-0.466-0.603-0.47-0.733-0.041-1.193 	c0.268-0.287,0.322-0.383,0.357-0.649c0.108-0.8-0.114-1.447-0.691-2.002c-0.447-0.431-0.559-0.704-0.56-1.366 	c-0.001-0.509,0.09-1.012,0.182-1.012c0.027,0,0.049,0.028,0.049,0.062c0,0.156,0.375,0.267,1.016,0.306 	c0.553,0.033,0.69,0.021,0.807-0.063c0.147-0.109,1.439-2.092,1.653-2.54c0.406-0.85,0.387-1.056-0.417-4.623 	c-0.372-1.652-0.712-3.098-0.755-3.213c-0.125-0.331-0.426-0.667-0.704-0.786c-0.253-0.107-0.746-0.105-1.055,0.003 	c-0.105,0.038-0.152-0.018-0.344-0.398c-0.12-0.244-0.523-0.833-0.894-1.31c-4.012-5.165-3.806-4.886-3.691-4.979 	c0.059-0.048,0.347-0.231,0.64-0.408c0.844-0.506,1.016-0.714,1.125-1.354c0.075-0.443-0.047-0.885-0.334-1.206 	c-0.138-0.154-1.931-1.351-4.893-3.263l-4.673-3.02l-0.621-1.269c-0.419-0.858-1.271-2.366-2.622-4.65 	c-1.102-1.858-2.028-3.377-2.058-3.377c-0.029,0-0.13,0.06-0.223,0.134l-0.169,0.134l-1.859-3.131 	c-24.754-41.684-28.389-47.838-28.301-47.9c0.364-0.257,0.415-0.108-0.654-1.914c-0.665-1.12-1.377-2.208-2.218-3.387 	c-0.681-0.956-1.239-1.76-1.239-1.79c0-0.028,0.419-2.415,0.93-5.307c0.514-2.89,0.931-5.309,0.931-5.375 	c0-0.104-0.156-0.152-1.195-0.371c-0.658-0.139-1.224-0.274-1.259-0.298c-0.044-0.03,0.329-1.477,1.14-4.433 	c0.663-2.414,1.183-4.412,1.158-4.438c-0.083-0.086-12.44-4.267-12.476-4.222c-0.019,0.027-0.661,2.331-1.425,5.124 	c-0.765,2.794-1.419,5.091-1.455,5.107c-0.064,0.027-109.822-24.069-109.872-24.122c-0.014-0.015,0.126-0.445,0.308-0.958 	l0.334-0.932l-0.192-0.44l-0.192-0.439l-5.872-2.638l-5.871-2.638l-0.378,0.18c-0.207,0.098-0.398,0.223-0.425,0.275 	c-0.026,0.052-0.576,1.551-1.22,3.328c-1.147,3.16-1.19,3.294-1.888,5.954l-0.717,2.721l-2.095,5.766l-2.094,5.768l-1.163,2.461 	c-1.127,2.384-1.201,2.568-2.368,5.785l-1.206,3.323l0.159,0.416c0.087,0.227,0.188,0.44,0.225,0.471 	c0.096,0.079,11.642,5.264,11.724,5.264c0.037,0,0.231-0.076,0.433-0.169l0.366-0.167l0.435-1.199 	c0.238-0.66,0.452-1.212,0.474-1.226c0.02-0.015,1.719,1.932,3.774,4.326l3.735,4.353l-0.487,0.525 	c-0.268,0.289-0.922,0.991-1.456,1.559l-0.971,1.035l2.421,2.818c1.331,1.552,4.596,5.355,7.255,8.455l9.779,11.404 	c5.268,6.143,12.007,14.001,22.141,25.82c10.86,12.666,12.254,14.285,12.427,14.449c0.094,0.089,1.44,0.998,2.992,2.021l2.82,1.86 	l0.659,0.78c0.362,0.429,0.682,0.779,0.712,0.779s0.395-0.366,0.812-0.815c0.416-0.447,0.778-0.806,0.803-0.793 	c0.025,0.012,1.184,1.348,2.575,2.969c3.926,4.577,13.434,15.668,15.466,18.044c2.643,3.087,3.324,3.848,3.581,3.996 	c0.125,0.072,1.512,0.64,3.083,1.261c2.606,1.03,2.876,1.151,3.089,1.377c0.527,0.56,1.393,0.992,2.223,1.11 	c0.83,0.117,1.586-0.034,2.432-0.49c0.969-0.52,1.406-0.538,2.284-0.098c0.284,0.141,0.685,0.31,0.891,0.372 	c0.354,0.108,1.629,0.116,23.75,0.133l23.376,0.018v0.321c0,0.309,0.006,0.321,0.19,0.358c0.103,0.022,1.235,0.254,2.516,0.516 	c1.279,0.262,2.381,0.478,2.447,0.482C177.824,171.667,181.699,170.712,186.369,169.54L186.369,169.54z" /><path fill="none" stroke="#000000" stroke-width="0.3894" stroke-miterlimit="10" d="M205.43,145.13 	c-0.075-0.059-0.172-0.203-0.216-0.321c-0.159-0.42,0.148-0.935,0.557-0.935c0.361,0,0.689,0.456,0.611,0.848 	C206.298,145.147,205.751,145.381,205.43,145.13L205.43,145.13z M85.091,112.962C67.25,92.173,48.447,70.259,43.306,64.266 	l-9.345-10.899l0.946-2.609c1.282-3.532,1.276-3.519,1.374-3.504c0.171,0.026,32.586,7.134,51.316,11.253 	c39.61,8.71,52.048,11.456,52.085,11.497c0.032,0.036-21.968,80.285-22.105,80.634C117.536,150.741,112.25,144.61,85.091,112.962 	L85.091,112.962z M210.163,154.782c-0.148-0.296,0.217-0.676,0.322-0.783c0.073-0.075,0.307-0.141,0.504-0.049 	c0.375,0.176,0.507,0.734,0.247,1.042c-0.072,0.087-0.154,0.144-0.176,0.157C210.741,155.347,210.307,155.08,210.163,154.782 	L210.163,154.782z M127.18,160.931c0.013-0.026,0.641-1.244,1.397-2.705l1.372-2.657l3.761-13.702 	c4.167-15.184,4.834-17.609,10.414-37.936c2.133-7.767,4.795-17.461,5.914-21.542c2.556-9.313,2.494-9.097,2.551-9.029 	c0.025,0.03,0.481,0.951,1.014,2.043c0.623,1.283,1.289,2.538,1.875,3.532c0.5,0.849,0.95,1.594,0.998,1.656 	c0.084,0.106,0.099,0.105,0.287-0.025c0.109-0.075,0.206-0.126,0.218-0.113c0.089,0.105,30.134,50.779,30.155,50.861 	c0.017,0.069-0.037,0.149-0.155,0.226c-0.098,0.065-0.169,0.151-0.156,0.188c0.014,0.038,0.922,1.584,2.021,3.436 	c1.357,2.286,2.249,3.716,2.779,4.458l0.781,1.094l-0.033,2.146c-0.045,2.774-0.195,4.133-0.681,6.169 	c-0.228,0.956-0.717,2.465-1.003,3.1c-1.186,2.631-3.121,4.547-5.531,5.473c-0.889,0.34-0.947,0.353-7.111,1.595 	c-2.942,0.592-5.37,1.092-5.395,1.11c-0.026,0.016-0.046,0.175-0.046,0.35v0.321h-22.724 	C137.383,160.98,127.167,160.957,127.18,160.931L127.18,160.931z M210.727,161.717c-0.392-0.225-0.634-0.801-0.535-1.284 	c0.174-0.841,1.094-1.2,1.679-0.652c0.5,0.469,0.47,1.437-0.058,1.854C211.564,161.833,211.007,161.874,210.727,161.717 	L210.727,161.717z M205.564,163.609c-0.168-0.081-0.249-0.223-0.344-0.603c-0.021-0.08-0.127-0.265-0.237-0.411 	c-0.251-0.336-0.263-0.585-0.041-0.829c0.228-0.249,1.887-1.239,2.076-1.239c0.177,0,0.499,0.312,0.499,0.483 	c0,0.136,0.221,0.617,0.284,0.617c0.067,0,0.182,0.303,0.182,0.482c0,0.083-0.046,0.212-0.101,0.285 	c-0.103,0.134-1.802,1.195-2.022,1.263C205.795,163.679,205.662,163.656,205.564,163.609L205.564,163.609z M208.568,168.965 	c-0.658-0.375-0.648-1.438,0.018-1.79c0.274-0.144,0.497-0.132,0.793,0.043c0.304,0.178,0.466,0.488,0.466,0.889 	C209.845,168.827,209.149,169.294,208.568,168.965L208.568,168.965z M119.873,169.143c-0.777-0.155-1.578-0.635-1.986-1.189 	c-1.187-1.612-1.119-3.708,0.163-5.135c0.627-0.694,1.415-1.062,2.281-1.062c0.597,0,0.972,0.096,1.517,0.389 	c0.538,0.29,1.104,0.857,1.379,1.381c0.232,0.442,0.431,1.135,0.478,1.66c0.147,1.662-0.91,3.354-2.407,3.85 	C120.906,169.166,120.234,169.217,119.873,169.143L119.873,169.143z M186.369,169.54c4.671-1.173,8.631-2.15,8.802-2.173 	c0.374-0.053,4.922-1.183,5.141-1.277c0.3-0.131,0.343-0.253,0.547-1.584c0.108-0.703,0.206-1.287,0.218-1.302 	c0.013-0.013,0.038,0.159,0.057,0.382c0.106,1.252,0.783,2.397,1.728,2.924c0.799,0.446,1.446,0.513,2.496,0.262 	c0.415-0.1,0.474-0.1,0.774-0.003c0.22,0.072,0.4,0.188,0.566,0.367c0.281,0.304,0.328,0.421,0.476,1.158 	c0.061,0.299,0.174,0.668,0.255,0.82c0.201,0.383,0.778,0.945,1.253,1.223c0.659,0.387,1.572,0.803,1.685,0.768 	c0.059-0.016,0.165-0.098,0.235-0.182l0.128-0.15l-0.356-0.461c-0.466-0.603-0.47-0.733-0.041-1.193 	c0.268-0.287,0.322-0.383,0.357-0.649c0.108-0.8-0.114-1.447-0.691-2.002c-0.447-0.431-0.559-0.704-0.56-1.366 	c-0.001-0.509,0.09-1.012,0.182-1.012c0.027,0,0.049,0.028,0.049,0.062c0,0.156,0.375,0.267,1.016,0.306 	c0.553,0.033,0.69,0.021,0.807-0.063c0.147-0.109,1.439-2.092,1.653-2.54c0.406-0.85,0.387-1.056-0.417-4.623 	c-0.372-1.652-0.712-3.098-0.755-3.213c-0.125-0.331-0.426-0.667-0.704-0.786c-0.253-0.107-0.746-0.105-1.055,0.003 	c-0.105,0.038-0.152-0.018-0.344-0.398c-0.12-0.244-0.523-0.833-0.894-1.31c-4.012-5.165-3.806-4.886-3.691-4.979 	c0.059-0.048,0.347-0.231,0.64-0.408c0.844-0.506,1.016-0.714,1.125-1.354c0.075-0.443-0.047-0.885-0.334-1.206 	c-0.138-0.154-1.931-1.351-4.893-3.263l-4.673-3.02l-0.621-1.269c-0.419-0.858-1.271-2.366-2.622-4.65 	c-1.102-1.858-2.028-3.377-2.058-3.377c-0.029,0-0.13,0.06-0.223,0.134l-0.169,0.134l-1.859-3.131 	c-24.754-41.684-28.389-47.838-28.301-47.9c0.364-0.257,0.415-0.108-0.654-1.914c-0.665-1.12-1.377-2.208-2.218-3.387 	c-0.681-0.956-1.239-1.76-1.239-1.79c0-0.028,0.419-2.415,0.93-5.307c0.514-2.89,0.931-5.309,0.931-5.375 	c0-0.104-0.156-0.152-1.195-0.371c-0.658-0.139-1.224-0.274-1.259-0.298c-0.044-0.03,0.329-1.477,1.14-4.433 	c0.663-2.414,1.183-4.412,1.158-4.438c-0.083-0.086-12.44-4.267-12.476-4.222c-0.019,0.027-0.661,2.331-1.425,5.124 	c-0.765,2.794-1.419,5.091-1.455,5.107c-0.064,0.027-109.822-24.069-109.872-24.122c-0.014-0.015,0.126-0.445,0.308-0.958 	l0.334-0.932l-0.192-0.44l-0.192-0.439l-5.872-2.638l-5.871-2.638l-0.378,0.18c-0.207,0.098-0.398,0.223-0.425,0.275 	c-0.026,0.052-0.576,1.551-1.22,3.328c-1.147,3.16-1.19,3.294-1.888,5.954l-0.717,2.721l-2.095,5.766l-2.094,5.768l-1.163,2.461 	c-1.127,2.384-1.201,2.568-2.368,5.785l-1.206,3.323l0.159,0.416c0.087,0.227,0.188,0.44,0.225,0.471 	c0.096,0.079,11.642,5.264,11.724,5.264c0.037,0,0.231-0.076,0.433-0.169l0.366-0.167l0.435-1.199 	c0.238-0.66,0.452-1.212,0.474-1.226c0.02-0.015,1.719,1.932,3.774,4.326l3.735,4.353l-0.487,0.525 	c-0.268,0.289-0.922,0.991-1.456,1.559l-0.971,1.035l2.421,2.818c1.331,1.552,4.596,5.355,7.255,8.455l9.779,11.404 	c5.268,6.143,12.007,14.001,22.141,25.82c10.86,12.666,12.254,14.285,12.427,14.449c0.094,0.089,1.44,0.998,2.992,2.021l2.82,1.86 	l0.659,0.78c0.362,0.429,0.682,0.779,0.712,0.779s0.395-0.366,0.812-0.815c0.416-0.447,0.778-0.806,0.803-0.793 	c0.025,0.012,1.184,1.348,2.575,2.969c3.926,4.577,13.434,15.668,15.466,18.044c2.643,3.087,3.324,3.848,3.581,3.996 	c0.125,0.072,1.512,0.64,3.083,1.261c2.606,1.03,2.876,1.151,3.089,1.377c0.527,0.56,1.393,0.992,2.223,1.11 	c0.83,0.117,1.586-0.034,2.432-0.49c0.969-0.52,1.406-0.538,2.284-0.098c0.284,0.141,0.685,0.31,0.891,0.372 	c0.354,0.108,1.629,0.116,23.75,0.133l23.376,0.018v0.321c0,0.309,0.006,0.321,0.19,0.358c0.103,0.022,1.235,0.254,2.516,0.516 	c1.279,0.262,2.381,0.478,2.447,0.482C177.824,171.667,181.699,170.712,186.369,169.54L186.369,169.54z" /><line fill="none" stroke="#878787" stroke-width="0.2059" x1="29.716" y1="18.968" x2="153.799" y2="18.968"/><polyline fill="#878787" points="25.415,18.968 31.336,21.123 31.336,16.814 25.415,18.968 "/><polyline fill="#878787" points="158.1,18.968 152.179,16.814 152.179,21.123 158.1,18.968 "/><line fill="none" stroke="#878787" stroke-width="0.2059" x1="64.623" y1="182.904" x2="63.211" y2="28.328"/><polyline fill="#878787" points="64.662,187.205 66.762,181.264 62.453,181.303 64.662,187.205 "/><polyline fill="#878787" points="63.172,24.027 61.072,29.968 65.381,29.928 63.172,24.027 "/><line fill="none" stroke="#878787" stroke-width="0.2059" x1="97.239" y1="183.003" x2="141.047" y2="28.711"/><polyline fill="#878787" points="96.065,187.141 99.754,182.033 95.609,180.856 96.065,187.141 "/><polyline fill="#878787" points="142.221,24.574 138.532,29.681 142.677,30.858 142.221,24.574 "/><text transform="matrix(1 0 0 1 31.3365 140.5443)" fill="#7C7C7B" font-size="8.95">885 mm</text><text transform="matrix(1 0 0 1 86.3068 15.4893)" fill="#7C7C7B" font-size="8.95">640 mm</text><text transform="matrix(1 0 0 1 91.758 84.2679)" fill="#7C7C7B" font-size="8.95">885 mm</text><text transform="matrix(1 0 0 1 150.0431 140.5443)" fill="#7C7C7B" font-size="8.95">548 mm</text><line fill="none" stroke="#878787" stroke-width="0.2059" x1="141.334" y1="153.831" x2="169.183" y2="57.966"/><polyline fill="#878787" points="140.134,157.962 143.855,152.877 139.716,151.674 140.134,157.962 "/><polyline fill="#878787" points="170.382,53.835 166.661,58.92 170.8,60.122 170.382,53.835 "/></g></svg>