<svg version="1.1" xmlns="http://www.w3.org/2000/svg" xmlns:xlink="http://www.w3.org/1999/xlink" x="0px" y="0px" width="100%" height="322.5px" viewBox="0 0 460 322.5" enable-background="new 0 0 460 322.5" xml:space="preserve"><g><path fill="#A7A6A6" stroke="#000000" stroke-width="0.75" stroke-miterlimit="10" d="M332.186,124.829 	c0.449-1.047-0.298-1.795-0.298-1.795s1.493-1.343,2.24-2.54c0.749-1.197-5.082-4.784-6.127-5.082 	c-1.046-0.298-11.808,0.747-25.559,4.782c-13.751,4.035-18.386,11.062-35.874,36.023c-17.488,24.961-37.966,57.248-38.116,57.995 	c-0.058,0.294,0.438,1.74,1.104,3.414c-0.074-0.038-0.156-0.077-0.234-0.116c1.287,3.068,2.491,5.685,3.033,6.418h2.076 	c0.468,0,0.858,0.36,0.894,0.826c0.037,0.466,0.899,11.404,1.047,14.223c0.1,1.903,2.059,2.367,5.246,2.967l0.455,0.086 	c3.079,0.588,5.169,0.887,5.191,0.891c0.366,0.053,0.648,0.32,0.738,0.656c2.147,0.294,5.815,0.817,7.057,1.129 	c1.793,0.449,4.485-4.035,6.427-7.024c1.943-2.989,36.024-54.857,50.521-77.725c11.24-17.73,17.267-27.907,19.41-31.59l-0.875-0.548 	C330.542,127.816,331.737,125.873,332.186,124.829z"/><path fill="#A7A6A6" stroke="#000000" stroke-width="0.75" stroke-miterlimit="10" d="M454.901,63.096 	c-0.822-1.718-16.366-34.752-19.43-43.569c-3.064-8.818-5.604-14.126-6.278-14.052c-0.673,0.075-2.913,0.524-6.8,2.093 	c-3.886,1.569-11.944,5.448-12.332,5.83c-1.045,1.028,1.831,4.352,0.43,5.642c-1.401,1.288-40.488,12.966-57.079,17.899 	c-16.592,4.933-23.767,10.013-35.127,17.637s-69.354,49.924-96.408,70.101c-7.938,5.92-18.85,13.85-30.913,22.539 	c-8.409-26.008-15.434-47.713-15.871-48.996c-1.121-3.289-1.793-5.231-2.018-9.791c-0.224-4.56-3.513-11.062-4.483-11.135 	c-0.972-0.074-12.78,3.438-17.116,4.858c-4.334,1.42-6.278,5.233-5.979,8.819c0.3,3.587,3.886,8.746,3.886,8.746 	s9.594,29.678,20.308,62.769c-23.548,16.856-47.51,33.902-60.516,43.354c-24.064,17.49-39.161,27.801-46.486,29.298 	c-7.324,1.494-22.271,1.343-23.018,1.644c-0.747,0.298-19.132,16.889-24.813,22.568c-5.68,5.68-6.726,7.622-7.621,8.968 	c-0.897,1.345-1.645,9.715-0.749,10.164c0.897,0.449,35.425,0.449,35.425,0.449s3.14,5.68,6.427,7.471 	c3.289,1.795,6.278,2.58,6.278,2.58s25.336,2.355,51.007,4.933c25.672,2.578,62.554,6.951,76.231,6.951 	c8.031,0,20.349-0.193,29.153-0.353c1.677,8.941,9.511,15.71,18.939,15.71c2.276,0,4.452-0.408,6.477-1.134 	c0.881-0.716,1.224-1.963,0.836-3.066l-1.009-2.271c-0.403-0.695-1.056-1.163-1.774-1.35c-1.404,0.555-2.93,0.87-4.53,0.87 	c-6.811,0-12.331-5.521-12.331-12.331c0-6.808,5.52-12.331,12.331-12.331c6.81,0,12.331,5.522,12.331,12.331 	c0,4.335-2.243,8.143-5.628,10.34c-0.389,0.695-0.48,1.562-0.193,2.377l1.006,2.271c0.557,0.939,1.616,1.473,2.664,1.374 	c4.741-2.967,8.104-7.93,8.9-13.72c0,0,2.346-0.219,3.789-1.072c7.371-4.364,20.179-28.7,20.179-28.7s9.791-18.31,10.017-22.044 	c0.223-3.737,0.447-4.786,6.351-13.679c5.904-8.893,18.084-27.95,26.457-40.431c8.371-12.481,21.597-33.258,30.492-47.533 	c8.893-14.273,18.535-30.117,28.699-46.11c10.164-15.994,18.833-23.394,26.53-27.279c7.697-3.888,22.721-5.904,24.663-5.457 	c1.942,0.449,3.588,5.68,4.26,7.399c0.673,1.72,7.1-1.569,13.153-4.111C449.671,68.028,455.724,64.814,454.901,63.096z 	 M14.784,274.075c-1.073,0-1.942-0.87-1.942-1.944c0-1.072,0.869-1.942,1.942-1.942c1.074,0,1.943,0.87,1.943,1.942 	C16.727,273.205,15.858,274.075,14.784,274.075z M33.095,275.793c-1.073,0-1.943-0.87-1.943-1.944c0-1.072,0.87-1.942,1.943-1.942 	c1.072,0,1.942,0.87,1.942,1.942C35.038,274.923,34.168,275.793,33.095,275.793z M33.655,267.124 	c-4.484-0.336-14.909-1.233-16.703-1.906c-1.794-0.673-1.906-1.68-1.906-1.68s17.108-16.443,17.668-16.443 	c0.561,0,5.687,0.822,5.687,0.822s0.15,1.346,1.046,7.922c0.897,6.576,2.317,11.286,2.317,11.286S38.14,267.46,33.655,267.124z 	 M140.489,282.482c-12.555-0.56-74.66-4.707-77.687-4.596c-3.027,0.111-4.26-3.027-8.071-4.26 	c-3.812-1.233-6.951-4.597-8.857-10.315c-1.905-5.718-2.801-14.909-2.801-14.909s6.726,0.223,11.658-0.562 	c4.932-0.785,10.762-1.793,16.031-3.587c5.27-1.793,15.471-8.855,28.25-17.824c12.78-8.968,50.671-36.322,57.734-41.142 	c2.031-1.387,8.174-5.817,16.49-11.855c11.389,35.163,22.991,70.92,25.024,76.949c3.003,8.905,12.295,34.341,12.295,34.341 	S153.045,283.042,140.489,282.482z M368.358,71.765c-0.897,1.346-35.423,56.051-35.423,56.051l-1.197,0.749l-0.32-0.2 	c-2.143,3.683-8.17,13.86-19.41,31.59c-14.497,22.868-48.578,74.736-50.521,77.725c-1.941,2.989-4.634,7.473-6.427,7.024 	c-1.242-0.312-4.91-0.834-7.057-1.129c0.031,0.115,0.039,0.235,0.021,0.358c-0.062,0.449-0.447,0.771-0.886,0.771 	c-0.042,0-0.085-0.003-0.128-0.009c-0.021-0.003-2.149-0.31-5.271-0.904l-0.452-0.086c-3.057-0.574-6.524-1.228-6.704-4.635 	c-0.124-2.35-0.771-10.683-0.98-13.348h-1.562c-0.615,0-1.368-0.007-5.076-9.205c-0.632-0.185-1.115-0.216-1.202,0.086 	c-0.218,0.767-5.464,8.554-8.274,12.692c-4.802-14.867-14.264-44.154-23.038-71.297c18.214-13.268,38.695-28.202,51.305-37.28 	c0.435-0.313,0.873-0.63,1.315-0.949l1.568,2.388c0.497,0.754,1.369,1.059,1.948,0.678l2.219-1.459 	c0.581-0.38,0.646-1.302,0.151-2.055l-1.69-2.576c24.87-17.95,57.604-41.839,57.604-41.839s51.567-6.726,54.855-6.726 	C367.013,68.178,369.254,70.42,368.358,71.765z"/><polyline fill="#878787" points="213.389,321.5 213.585,314.993 209.357,316.389 213.389,321.5 "/><polyline fill="#878787" points="132.297,76.836 132.051,85.022 137.368,83.266 132.297,76.836 "/><line fill="none" stroke="#878787" stroke-width="0.5" x1="212.295" y1="318.84" x2="134.709" y2="83.739"/><text transform="matrix(1 0 0 1 120.765 268.1406)" fill="#A7A6A6">420mm</text><line fill="#A7A6A6" stroke="#878787" stroke-width="0.5" x1="337.368" y1="12.223" x2="191.152" y2="118.374"/><polyline fill="#878787" points="186.689,121.029 194.654,119.127 191.568,114.453 186.689,121.029 "/><polyline fill="#878787" points="343.412,7.653 335.599,10.105 339.001,14.552 343.412,7.653 "/><text transform="matrix(1 0 0 1 214.9549 53.9141)" fill="#A7A6A6">588mm</text></g></svg>