<?xml version="1.0" encoding="UTF-8"?><svg xmlns="http://www.w3.org/2000/svg" xmlns:xlink="http://www.w3.org/1999/xlink" fill-opacity="1" color-rendering="auto" color-interpolation="auto" text-rendering="auto" stroke="black" stroke-linecap="square" width="879" stroke-miterlimit="10" shape-rendering="auto" stroke-opacity="1" fill="black" stroke-dasharray="none" font-weight="normal" stroke-width="1" height="329" font-family="'Dialog'" font-style="normal" stroke-linejoin="miter" font-size="12" stroke-dashoffset="0" image-rendering="auto">
  <!--Generated by ySVG 2.5-->
  <defs id="genericDefs"/>
  <g>
    <defs id="defs1">
      <clipPath clipPathUnits="userSpaceOnUse" id="clipPath1">
        <path d="M0 0 L879 0 L879 329 L0 329 L0 0 Z"/>
      </clipPath>
      <clipPath clipPathUnits="userSpaceOnUse" id="clipPath2">
        <path d="M230 42 L1109 42 L1109 371 L230 371 L230 42 Z"/>
      </clipPath>
    </defs>
    <g fill="white" text-rendering="geometricPrecision" shape-rendering="geometricPrecision" transform="translate(-230,-42)" stroke="white">
      <rect x="230" width="879" height="329" y="42" clip-path="url(#clipPath2)" stroke="none"/>
    </g>
    <g text-rendering="geometricPrecision" stroke-miterlimit="1.45" shape-rendering="geometricPrecision" font-family="sans-serif" transform="matrix(1,0,0,1,-230,-42)" stroke-linecap="butt">
      <text x="300.4814" xml:space="preserve" y="74.1387" clip-path="url(#clipPath2)" stroke="none">Ignored</text>
      <rect x="245" y="57" clip-path="url(#clipPath2)" fill="none" width="157" stroke-dasharray="6,2" height="299"/>
      <text x="465.5361" xml:space="preserve" y="74.1387" clip-path="url(#clipPath2)" stroke="none">Untracked</text>
      <rect x="418" y="57" clip-path="url(#clipPath2)" fill="none" width="157" stroke-dasharray="6,2" height="299"/>
      <text x="635.0352" xml:space="preserve" y="74.1387" clip-path="url(#clipPath2)" stroke="none">Unmodified</text>
      <rect x="591" y="57" clip-path="url(#clipPath2)" fill="none" width="157" stroke-dasharray="6,2" height="299"/>
      <text x="816.8975" xml:space="preserve" y="74.1387" clip-path="url(#clipPath2)" stroke="none">Modified</text>
      <rect x="764" y="57" clip-path="url(#clipPath2)" fill="none" width="157" stroke-dasharray="6,2" height="299"/>
      <text x="994.3535" xml:space="preserve" y="74.1387" clip-path="url(#clipPath2)" stroke="none">Staged</text>
      <rect x="937" y="57" clip-path="url(#clipPath2)" fill="none" width="157" stroke-dasharray="6,2" height="299"/>
    </g>
    <g fill="lime" text-rendering="geometricPrecision" shape-rendering="geometricPrecision" transform="matrix(1,0,0,1,-230,-42)" stroke="lime">
      <path d="M695.5 262.5 Q698.75 252.75 708.5 249.5 L993.25 249.5 Q999.75 262.5 993.25 275.5 L708.5 275.5 Q698.75 272.25 695.5 262.5" stroke="none" clip-path="url(#clipPath2)"/>
    </g>
    <g text-rendering="geometricPrecision" stroke-miterlimit="1.45" shape-rendering="geometricPrecision" transform="matrix(1,0,0,1,-230,-42)" stroke-linecap="butt">
      <path fill="none" d="M695.5 262.5 Q698.75 252.75 708.5 249.5 L993.25 249.5 Q999.75 262.5 993.25 275.5 L708.5 275.5 Q698.75 272.25 695.5 262.5" clip-path="url(#clipPath2)"/>
      <text x="820.8926" y="266.6543" clip-path="url(#clipPath2)" font-family="sans-serif" stroke="none" font-weight="bold" xml:space="preserve">commit</text>
    </g>
    <g fill="lime" text-rendering="geometricPrecision" shape-rendering="geometricPrecision" transform="matrix(1,0,0,1,-230,-42)" stroke="lime">
      <path d="M875.5 193.5 L990 193.5 L996.5 206.5 L990 219.5 L875.5 219.5 Z" stroke="none" clip-path="url(#clipPath2)"/>
    </g>
    <g text-rendering="geometricPrecision" stroke-miterlimit="1.45" shape-rendering="geometricPrecision" transform="matrix(1,0,0,1,-230,-42)" stroke-linecap="butt">
      <path fill="none" d="M875.5 193.5 L990 193.5 L996.5 206.5 L990 219.5 L875.5 219.5 Z" clip-path="url(#clipPath2)"/>
      <text x="923.3613" y="210.6543" clip-path="url(#clipPath2)" font-family="sans-serif" stroke="none" font-weight="bold" xml:space="preserve">add</text>
    </g>
    <g fill="lime" text-rendering="geometricPrecision" shape-rendering="geometricPrecision" transform="matrix(1,0,0,1,-230,-42)" stroke="lime">
      <path d="M522.5 310 Q525.75 300.25 535.5 297 L640.25 297 Q646.75 310 640.25 323 L535.5 323 Q525.75 319.75 522.5 310" stroke="none" clip-path="url(#clipPath2)"/>
    </g>
    <g text-rendering="geometricPrecision" stroke-miterlimit="1.45" shape-rendering="geometricPrecision" transform="matrix(1,0,0,1,-230,-42)" stroke-linecap="butt">
      <path fill="none" d="M522.5 310 Q525.75 300.25 535.5 297 L640.25 297 Q646.75 310 640.25 323 L535.5 323 Q525.75 319.75 522.5 310" clip-path="url(#clipPath2)"/>
      <text x="573.7891" y="314.1543" clip-path="url(#clipPath2)" font-family="sans-serif" stroke="none" font-weight="bold" xml:space="preserve">rm</text>
    </g>
    <g fill="lime" text-rendering="geometricPrecision" shape-rendering="geometricPrecision" transform="matrix(1,0,0,1,-230,-42)" stroke="lime">
      <path d="M695.5 145 L810 145 L816.5 158 L810 171 L695.5 171 Z" stroke="none" clip-path="url(#clipPath2)"/>
    </g>
    <g text-rendering="geometricPrecision" stroke-miterlimit="1.45" shape-rendering="geometricPrecision" transform="matrix(1,0,0,1,-230,-42)" stroke-linecap="butt">
      <path fill="none" d="M695.5 145 L810 145 L816.5 158 L810 171 L695.5 171 Z" clip-path="url(#clipPath2)"/>
      <text x="742.7109" y="162.1543" clip-path="url(#clipPath2)" font-family="sans-serif" stroke="none" font-weight="bold" xml:space="preserve">edit</text>
    </g>
    <g fill="lime" text-rendering="geometricPrecision" shape-rendering="geometricPrecision" transform="matrix(1,0,0,1,-230,-42)" stroke="lime">
      <path d="M522.5 104 L637 104 L643.5 117 L637 130 L522.5 130 Z" stroke="none" clip-path="url(#clipPath2)"/>
    </g>
    <g text-rendering="geometricPrecision" stroke-miterlimit="1.45" shape-rendering="geometricPrecision" transform="matrix(1,0,0,1,-230,-42)" stroke-linecap="butt">
      <path fill="none" d="M522.5 104 L637 104 L643.5 117 L637 130 L522.5 130 Z" clip-path="url(#clipPath2)"/>
      <text x="570.3613" y="121.1543" clip-path="url(#clipPath2)" font-family="sans-serif" stroke="none" font-weight="bold" xml:space="preserve">add</text>
    </g>
    <g fill="lime" text-rendering="geometricPrecision" shape-rendering="geometricPrecision" transform="matrix(1,0,0,1,-230,-42)" stroke="lime">
      <path d="M349.5 116.5 Q353.125 105.625 364 102 L466.875 102 Q474.125 116.5 466.875 131 L364 131 Q353.125 127.375 349.5 116.5" stroke="none" clip-path="url(#clipPath2)"/>
    </g>
    <g text-rendering="geometricPrecision" stroke-miterlimit="1.45" shape-rendering="geometricPrecision" transform="matrix(1,0,0,1,-230,-42)" stroke-linecap="butt">
      <path fill="none" d="M349.5 116.5 Q353.125 105.625 364 102 L466.875 102 Q474.125 116.5 466.875 131 L364 131 Q353.125 127.375 349.5 116.5" clip-path="url(#clipPath2)"/>
      <text x="388.2266" y="120.6543" clip-path="url(#clipPath2)" font-family="sans-serif" stroke="none" font-weight="bold" xml:space="preserve">ignore</text>
    </g>
  </g>
</svg>
