<?xml version="1.0" encoding="UTF-8"?><svg xmlns="http://www.w3.org/2000/svg" xmlns:xlink="http://www.w3.org/1999/xlink" fill-opacity="1" color-rendering="auto" color-interpolation="auto" text-rendering="auto" stroke="black" stroke-linecap="square" width="549" stroke-miterlimit="10" shape-rendering="auto" stroke-opacity="1" fill="black" stroke-dasharray="none" font-weight="normal" stroke-width="1" height="217" font-family="'Dialog'" font-style="normal" stroke-linejoin="miter" font-size="12px" stroke-dashoffset="0" image-rendering="auto">
  <!--Generated by ySVG 2.5-->
  <defs id="genericDefs"/>
  <g>
    <defs id="defs1">
      <clipPath clipPathUnits="userSpaceOnUse" id="clipPath1">
        <path d="M0 0 L549 0 L549 217 L0 217 L0 0 Z"/>
      </clipPath>
      <clipPath clipPathUnits="userSpaceOnUse" id="clipPath2">
        <path d="M248 116 L797 116 L797 333 L248 333 L248 116 Z"/>
      </clipPath>
    </defs>
    <g fill="white" text-rendering="geometricPrecision" shape-rendering="geometricPrecision" transform="translate(-248,-116)" stroke="white">
      <rect x="248" width="549" height="217" y="116" clip-path="url(#clipPath2)" stroke="none"/>
    </g>
    <g fill="rgb(153,204,255)" text-rendering="geometricPrecision" shape-rendering="geometricPrecision" transform="matrix(1,0,0,1,-248,-116)" stroke="rgb(153,204,255)">
      <rect x="537.64" y="131.76" clip-path="url(#clipPath2)" width="189.84" rx="4" ry="4" height="41" stroke="none"/>
    </g>
    <g text-rendering="geometricPrecision" stroke-miterlimit="1.45" shape-rendering="geometricPrecision" font-family="sans-serif" transform="matrix(1,0,0,1,-248,-116)" stroke-linecap="butt">
      <text x="575.3168" xml:space="preserve" y="156.4143" clip-path="url(#clipPath2)" stroke="none">xl/chart/chart1.xml</text>
      <rect x="537.64" y="131.76" clip-path="url(#clipPath2)" fill="none" width="189.84" rx="4" ry="4" height="41"/>
    </g>
    <g fill="rgb(153,204,255)" text-rendering="geometricPrecision" shape-rendering="geometricPrecision" transform="matrix(1,0,0,1,-248,-116)" stroke="rgb(153,204,255)">
      <rect x="537.64" y="206" clip-path="url(#clipPath2)" width="189.84" rx="4" ry="4" height="41" stroke="none"/>
    </g>
    <g text-rendering="geometricPrecision" stroke-miterlimit="1.45" shape-rendering="geometricPrecision" font-family="sans-serif" transform="matrix(1,0,0,1,-248,-116)" stroke-linecap="butt">
      <text x="558.2368" xml:space="preserve" y="230.6543" clip-path="url(#clipPath2)" stroke="none">xl/drawing/drawing1.xml</text>
      <rect x="537.64" y="206" clip-path="url(#clipPath2)" fill="none" width="189.84" rx="4" ry="4" height="41"/>
    </g>
    <g fill="rgb(153,204,255)" text-rendering="geometricPrecision" shape-rendering="geometricPrecision" transform="matrix(1,0,0,1,-248,-116)" stroke="rgb(153,204,255)">
      <rect x="263.4" y="175.28" clip-path="url(#clipPath2)" width="189.84" rx="4" ry="4" height="41" stroke="none"/>
    </g>
    <g text-rendering="geometricPrecision" stroke-miterlimit="1.45" shape-rendering="geometricPrecision" font-family="sans-serif" transform="matrix(1,0,0,1,-248,-116)" stroke-linecap="butt">
      <text x="295.9645" xml:space="preserve" y="199.9343" clip-path="url(#clipPath2)" stroke="none">[Content_Types].xml</text>
      <rect x="263.4" y="175.28" clip-path="url(#clipPath2)" fill="none" width="189.84" rx="4" ry="4" height="41"/>
    </g>
    <g fill="rgb(153,204,255)" text-rendering="geometricPrecision" shape-rendering="geometricPrecision" transform="matrix(1,0,0,1,-248,-116)" stroke="rgb(153,204,255)">
      <rect x="537.64" y="277" clip-path="url(#clipPath2)" width="244.24" rx="4" ry="4" height="41" stroke="none"/>
    </g>
    <g text-rendering="geometricPrecision" stroke-miterlimit="1.45" shape-rendering="geometricPrecision" font-family="sans-serif" transform="matrix(1,0,0,1,-248,-116)" stroke-linecap="butt">
      <text x="553.4797" xml:space="preserve" y="301.6543" clip-path="url(#clipPath2)" stroke="none">xl/drawings/_rels/drawing1.xml.rels</text>
      <rect x="537.64" y="277" clip-path="url(#clipPath2)" fill="none" width="244.24" rx="4" ry="4" height="41"/>
    </g>
    <g fill="rgb(153,204,255)" text-rendering="geometricPrecision" shape-rendering="geometricPrecision" transform="matrix(1,0,0,1,-248,-116)" stroke="rgb(153,204,255)">
      <rect x="263.4" y="277" clip-path="url(#clipPath2)" width="244.24" rx="4" ry="4" height="41" stroke="none"/>
    </g>
    <g text-rendering="geometricPrecision" stroke-miterlimit="1.45" shape-rendering="geometricPrecision" font-family="sans-serif" transform="matrix(1,0,0,1,-248,-116)" stroke-linecap="butt">
      <text x="279.6674" xml:space="preserve" y="301.6543" clip-path="url(#clipPath2)" stroke="none">xl/worksheets/_rels/sheet1.xml.rels</text>
      <rect x="263.4" y="277" clip-path="url(#clipPath2)" fill="none" width="244.24" rx="4" ry="4" height="41"/>
      <path fill="none" d="M453.226 180.7191 L529.7817 168.5702" clip-path="url(#clipPath2)"/>
      <path d="M537.6829 167.3163 L525.0475 164.2589 L528.7941 168.7269 L526.6148 174.1353 Z" clip-path="url(#clipPath2)" stroke="none"/>
      <path fill="none" d="M453.226 206.4113 L529.7326 214.9814" clip-path="url(#clipPath2)"/>
      <path d="M537.6829 215.872 L526.3141 209.5672 L528.7388 214.8701 L525.2009 219.5051 Z" clip-path="url(#clipPath2)" stroke="none"/>
      <path fill="none" d="M507.609 297.5 L529.6603 297.5" clip-path="url(#clipPath2)"/>
      <path d="M537.6603 297.5 L525.6603 292.5 L528.6603 297.5 L525.6603 302.5 Z" clip-path="url(#clipPath2)" stroke="none"/>
    </g>
  </g>
</svg>
